<svg version="1.1" id="Layer_1" xmlns="http://www.w3.org/2000/svg" xmlns:xlink="http://www.w3.org/1999/xlink" x="0px" y="0px"
	 width="100%" viewBox="0 0 144 144" enable-background="new 0 0 144 144" xml:space="preserve">
<path fill="#000000" opacity="1.000000" stroke="none" 
	d="
M145.000000,87.600006 
	C142.832184,89.627457 143.322342,92.505402 141.915527,94.541771 
	C140.975571,95.902359 140.161270,96.858383 138.384964,96.329926 
	C136.400528,95.739532 136.430878,94.055443 136.874329,92.733971 
	C138.070419,89.169617 138.194763,84.630859 144.043793,84.093712 
	C144.610992,84.014740 145.000000,84.000000 145.000000,84.000000 
	C145.000000,85.066673 145.000000,86.133339 145.000000,87.600006 
z"/>
<path fill="#000000" opacity="1.000000" stroke="none" 
	d="
M145.000000,68.541931 
	C136.940643,68.306061 140.800339,61.519413 138.841705,57.741920 
	C140.938553,55.864151 142.691071,56.246799 144.712280,57.824600 
	C145.000000,61.361286 145.000000,64.722572 145.000000,68.541931 
z"/>
<path fill="#000000" opacity="1.000000" stroke="none" 
	d="
M145.000000,83.536819 
	C145.000000,84.000000 144.610992,84.014740 144.419128,84.025238 
	C138.737656,81.865143 141.085983,77.121315 140.783478,73.303123 
	C140.602310,71.016464 142.287155,70.668060 144.566559,70.901344 
	C145.000000,75.024544 145.000000,79.049088 145.000000,83.536819 
z"/>
<path fill="#000000" opacity="1.000000" stroke="none" 
	d="
M70.274033,107.292068 
	C66.288620,106.259438 62.780285,105.149590 60.794109,101.641449 
	C59.768219,99.829460 58.434074,97.865608 62.087746,97.209305 
	C57.721661,93.208122 56.237137,87.497757 58.373177,83.646736 
	C60.860405,79.162560 65.047928,79.112869 69.266914,79.849243 
	C73.782913,80.637466 74.570763,84.631020 75.114815,88.182709 
	C75.780418,92.527908 72.220467,96.138840 66.268486,97.939911 
	C70.341209,103.578262 90.070679,103.641121 94.980629,97.796295 
	C90.819511,96.369896 87.262444,94.135986 86.816124,89.434738 
	C86.451080,85.589439 87.621460,81.860611 91.526703,80.387527 
	C95.528061,78.878174 99.859818,78.644081 102.822380,82.677505 
	C105.474983,86.288948 104.963074,90.277740 102.791534,93.878662 
	C101.669914,95.738564 100.610252,96.912773 100.933212,99.629181 
	C101.408989,103.630905 97.689865,105.431023 94.181396,106.374748 
	C86.440262,108.457024 78.640213,109.910843 70.274033,107.292068 
M67.145790,84.511703 
	C64.592857,84.443893 62.261063,85.155235 61.983727,87.969574 
	C61.803089,89.802650 63.280037,91.472931 64.993423,92.219833 
	C67.095016,93.135979 68.521652,91.454437 69.526001,90.021286 
	C71.142708,87.714325 69.824509,86.013290 67.145790,84.511703 
M96.356285,92.402557 
	C97.704216,92.015442 98.705452,91.120781 99.216270,89.893234 
	C100.246521,87.417442 98.955872,85.609535 96.861778,84.731621 
	C94.410004,83.703758 92.528923,85.212242 91.973602,87.457901 
	C91.287857,90.230942 93.666504,91.329521 96.356285,92.402557 
z"/>
<path fill="#000000" opacity="1.000000" stroke="none" 
	d="
M42.326900,80.380219 
	C42.136341,88.212517 41.834873,95.566978 49.225601,100.371269 
	C50.949409,101.491829 50.819378,103.872078 49.729465,105.349518 
	C48.503902,107.010841 46.340435,106.585060 44.671463,105.816681 
	C38.271477,102.870178 36.693344,96.899078 35.728561,90.735161 
	C35.347492,88.300575 35.603973,85.758942 35.646477,83.267349 
	C35.688324,80.814491 35.020393,78.846092 33.022865,77.148315 
	C29.602545,74.241241 29.649632,70.268723 33.021751,67.248108 
	C35.395069,65.122177 35.850121,62.459690 35.636066,59.557598 
	C35.222980,53.957138 36.240536,48.747303 38.916538,43.725182 
	C40.469246,40.811169 42.797596,39.271214 45.618763,38.172913 
	C47.170071,37.568977 49.166039,37.014229 49.931297,38.997147 
	C50.602531,40.736446 51.100681,43.004589 48.860035,44.325638 
	C43.200478,47.662415 42.211399,53.017586 42.333000,58.932533 
	C42.414593,62.901379 42.510662,66.787254 40.486855,70.558571 
	C38.707283,73.874779 42.556404,76.613838 42.326900,80.380219 
z"/>
<path fill="#000000" opacity="1.000000" stroke="none" 
	d="
M125.341980,53.223289 
	C125.535629,56.813442 124.806770,60.030178 125.825577,63.084381 
	C126.426247,64.885109 126.838631,66.761925 129.136993,67.711800 
	C131.745605,68.789886 132.569229,74.624290 130.189774,75.960869 
	C125.072746,78.835190 125.179573,83.350998 125.359306,88.068153 
	C125.615082,94.780724 123.535515,100.452698 118.243004,104.813721 
	C116.395432,106.336105 114.096024,107.305161 112.484291,105.484306 
	C110.795837,103.576790 111.507599,101.294151 113.699402,99.484955 
	C117.233582,96.567688 118.798439,92.646538 118.653725,88.043930 
	C118.496475,83.043091 118.453224,78.055763 121.063255,73.505219 
	C121.590279,72.586365 121.666420,71.585358 121.127266,70.647324 
	C118.330406,65.781288 118.541412,60.442234 118.642387,55.117477 
	C118.721481,50.946014 116.649437,47.729191 113.694801,45.176682 
	C111.380936,43.177750 110.769791,40.617123 112.345535,38.640011 
	C114.129265,36.401928 116.712372,38.131397 118.535995,39.464180 
	C122.988876,42.718510 124.829231,47.436054 125.341980,53.223289 
z"/>
<path fill="#000000" opacity="1.000000" stroke="none" 
	d="
M133.940567,34.347664 
	C134.787369,35.813274 135.574066,36.920952 136.004959,38.153069 
	C136.534607,39.667561 136.338318,41.186161 134.674728,41.977558 
	C133.305603,42.628864 132.092148,42.204300 131.122238,41.064945 
	C131.015137,40.939140 130.873154,40.821976 130.819687,40.674561 
	C128.160248,33.342793 121.264084,29.588850 116.212311,24.487328 
	C111.700020,19.930601 105.147324,16.987682 98.493332,15.525560 
	C96.331543,15.050538 94.347244,14.369226 92.505295,13.236546 
	C91.398972,12.556224 91.036308,11.453449 91.467934,10.204058 
	C91.963036,8.770943 93.025093,8.780231 94.300659,9.077612 
	C97.351440,9.788857 100.746201,9.843210 102.991844,12.328302 
	C105.157265,14.724602 108.464462,12.520299 110.387733,14.373010 
	C115.929810,19.711767 124.944191,20.850302 127.971466,29.403622 
	C128.670853,31.379704 132.948792,30.953590 133.940567,34.347664 
z"/>
<path fill="#000000" opacity="1.000000" stroke="none" 
	d="
M105.383057,59.502907 
	C105.801117,60.967621 106.600327,61.418907 107.655983,61.656090 
	C109.850060,62.149044 111.162605,63.498520 111.257965,65.808266 
	C111.352554,68.099167 110.240280,69.687630 108.057205,70.270226 
	C106.374176,70.719376 105.534622,71.610573 105.286606,73.322281 
	C104.958092,75.589569 103.154305,76.082474 101.256569,76.278694 
	C99.147308,76.496796 97.564697,75.414352 96.938728,73.583130 
	C96.353371,71.870712 95.762512,70.566063 93.837852,70.142532 
	C93.264656,70.016388 92.509010,69.465347 92.345116,68.948006 
	C91.593872,66.576569 90.519928,63.646347 93.539742,62.411770 
	C97.282013,60.881832 99.033539,51.531689 105.383057,59.502907 
z"/>
<path fill="#000000" opacity="1.000000" stroke="none" 
	d="
M79.244186,45.051048 
	C72.230286,43.868927 66.849251,48.905506 60.436958,49.425415 
	C60.592926,43.691963 63.437031,40.836533 68.791061,40.696819 
	C71.964722,40.613998 74.956146,40.643478 77.674751,38.405746 
	C79.398125,36.987213 82.338791,36.898849 83.715218,38.388634 
	C86.200798,41.078926 89.075806,40.534878 91.984138,40.657730 
	C97.216782,40.878761 100.376076,43.666592 100.919510,49.448502 
	C93.629845,48.138954 87.090538,43.847927 79.244186,45.051048 
z"/>
<path fill="#000000" opacity="1.000000" stroke="none" 
	d="
M63.830429,68.791069 
	C62.266476,69.921227 62.366165,71.304329 62.315315,72.612694 
	C62.243809,74.452393 61.319664,75.281982 59.498104,75.284218 
	C57.680702,75.286446 56.628799,74.465546 56.700928,72.626701 
	C56.814152,69.739983 55.593121,68.309654 52.630596,68.336189 
	C51.234188,68.348701 49.975563,67.932495 49.909508,66.147308 
	C49.831100,64.028351 51.295502,63.702030 52.873257,63.719532 
	C55.629921,63.750114 56.770493,62.390873 56.689617,59.734924 
	C56.627838,57.706059 57.580166,56.704891 59.703854,56.766235 
	C61.642551,56.822235 62.319363,57.872604 62.326897,59.613373 
	C62.335346,61.565773 62.634056,63.307060 65.062225,63.599064 
	C66.542328,63.777054 68.163734,63.756203 68.147476,65.939514 
	C68.126381,68.771797 65.777275,68.120056 63.830429,68.791069 
z"/>
<path fill="#000000" opacity="1.000000" stroke="none" 
	d="
M44.029041,123.976761 
	C41.122578,126.188957 38.342522,125.077583 36.602165,122.749878 
	C33.283054,118.310608 28.738466,115.070801 25.463211,110.644707 
	C24.571217,109.439278 23.821579,108.168594 23.687052,106.611328 
	C23.588329,105.468498 24.106161,104.676445 25.028851,104.160538 
	C25.961172,103.639244 26.943619,103.688728 27.825876,104.331673 
	C28.082911,104.518990 28.250870,104.833420 28.446693,105.099136 
	C32.813084,111.024086 37.903168,116.254059 43.514851,121.007050 
	C43.997536,121.415871 43.905437,122.503326 44.040901,123.638680 
	C44.001457,124.001823 44.029041,123.976761 44.029041,123.976761 
z"/>
<path fill="#000000" opacity="1.000000" stroke="none" 
	d="
M43.988808,124.015518 
	C46.379658,123.272873 48.568439,123.845474 50.595600,125.175758 
	C54.937889,128.025330 59.423759,130.465775 64.674591,131.283783 
	C66.981819,131.643219 68.972397,132.863373 68.043427,135.663162 
	C67.159164,138.328201 64.960701,137.172180 63.473751,136.453323 
	C57.796043,133.708496 51.250843,133.099701 46.020958,129.275238 
	C44.451809,128.127762 43.234585,126.908058 43.945873,124.366554 
	C44.029041,123.976761 44.001457,124.001823 43.988808,124.015518 
z"/>
<path fill="#000000" opacity="1.000000" stroke="none" 
	d="
M49.822067,18.666367 
	C49.006943,23.334812 45.143768,24.711924 41.505070,26.258093 
	C40.224270,26.802334 38.862217,26.666403 38.012676,25.308390 
	C37.146172,23.923250 37.828621,22.653748 38.723442,21.708317 
	C41.346031,18.937391 44.183701,16.455221 48.823040,17.150030 
	C49.424004,17.858833 49.623035,18.262600 49.822067,18.666367 
z"/>
<path fill="#000000" opacity="1.000000" stroke="none" 
	d="
M131.776978,109.680908 
	C132.258026,113.424370 129.291138,118.652229 125.920143,119.976837 
	C124.585472,120.501282 123.311867,120.469345 122.301834,119.311821 
	C121.160995,118.004356 121.070503,116.151932 122.190880,115.272713 
	C124.859695,113.178360 126.629005,109.787979 130.887299,109.247963 
	C131.506714,109.394508 131.646942,109.532539 131.776978,109.680908 
z"/>
<path fill="#000000" opacity="1.000000" stroke="none" 
	d="
M116.581589,120.649307 
	C118.850677,119.350121 120.803970,119.036079 121.943291,121.409630 
	C122.922768,123.450188 121.497551,124.888687 119.958344,125.979347 
	C118.479347,127.027321 116.920593,127.991989 115.302872,128.806564 
	C113.745392,129.590820 112.032433,129.929138 110.972015,128.020081 
	C109.989685,126.251579 110.760872,124.841812 112.257118,123.735245 
	C113.587852,122.751091 114.925949,121.776886 116.581589,120.649307 
z"/>
<path fill="#000000" opacity="1.000000" stroke="none" 
	d="
M35.191853,33.062534 
	C34.144497,34.154552 33.408344,35.086323 32.476067,35.737156 
	C31.137497,36.671627 29.601089,36.780205 28.434719,35.483608 
	C27.293558,34.215038 27.428186,32.673714 28.484392,31.412361 
	C29.858232,29.771671 31.376076,28.248024 32.878132,26.719385 
	C34.035759,25.541273 35.366474,25.020264 36.802898,26.254820 
	C38.236523,27.486967 38.746006,28.913740 37.373203,30.543734 
	C36.735641,31.300739 36.068939,32.033199 35.191853,33.062534 
z"/>
<path fill="#000000" opacity="1.000000" stroke="none" 
	d="
M140.550568,45.918365 
	C141.158447,47.863140 141.637619,49.450356 142.029556,51.058823 
	C142.351593,52.380367 142.626953,53.856819 140.914948,54.395721 
	C139.432037,54.862511 137.718246,54.782665 136.945175,53.241570 
	C135.757248,50.873486 134.837631,48.358925 133.957016,45.852802 
	C133.378174,44.205460 134.563049,43.392017 135.881714,42.889679 
	C138.464951,41.905628 139.476730,43.676361 140.550568,45.918365 
z"/>
<path fill="#000000" opacity="1.000000" stroke="none" 
	d="
M132.155136,109.671844 
	C131.646942,109.532539 131.506714,109.394508 131.240616,109.173447 
	C129.683609,104.534561 133.328049,101.803108 135.016678,98.398041 
	C135.480423,97.462952 136.732452,97.494148 137.714996,97.800957 
	C139.060928,98.221230 139.415512,99.408989 139.258469,100.582100 
	C138.691910,104.813972 137.615662,108.744049 132.155136,109.671844 
z"/>
<path fill="#000000" opacity="1.000000" stroke="none" 
	d="
M50.230907,18.824142 
	C49.623035,18.262600 49.424004,17.858833 49.122925,17.249229 
	C50.972511,12.314551 55.767838,12.432057 59.584080,10.937677 
	C60.580368,10.547547 61.422756,11.387388 61.853237,12.383801 
	C62.379597,13.602156 62.196152,14.754600 61.016941,15.375641 
	C57.748783,17.096838 54.838055,19.920685 50.230907,18.824142 
z"/>
<path fill="#000000" opacity="1.000000" stroke="none" 
	d="
M105.650261,127.422760 
	C107.932869,126.440460 109.193054,127.079796 109.920654,128.968414 
	C110.674316,130.924667 109.785873,132.223297 108.076347,132.929688 
	C106.111565,133.741547 104.065369,134.371201 102.024223,134.978027 
	C100.732979,135.361923 99.238342,135.629578 98.779449,133.861511 
	C98.411865,132.445221 98.206932,130.774673 99.843750,129.913742 
	C101.587578,128.996536 103.456436,128.317032 105.650261,127.422760 
z"/>
<path fill="#000000" opacity="1.000000" stroke="none" 
	d="
M23.785004,94.368240 
	C24.380407,95.609215 24.977512,96.472061 25.153152,97.413528 
	C25.504795,99.298447 27.594395,101.622963 24.507519,102.927597 
	C21.930096,104.016891 21.207190,101.395760 20.071798,99.996109 
	C19.276104,99.015205 18.844959,97.682411 18.454750,96.442650 
	C17.939346,94.805107 16.682415,92.770477 18.959734,91.678635 
	C21.145750,90.630569 22.709023,91.925888 23.785004,94.368240 
z"/>
<path fill="#000000" opacity="1.000000" stroke="none" 
	d="
M25.675413,47.525070 
	C24.077522,49.028183 22.478634,48.839195 21.397711,47.782898 
	C20.251717,46.662998 20.596245,45.053391 21.375023,43.655861 
	C22.337357,41.928940 23.285275,40.193779 24.220274,38.451897 
	C24.938999,37.112930 26.071768,36.476837 27.493561,36.949120 
	C29.223700,37.523823 29.679661,39.087193 29.113647,40.577164 
	C28.241234,42.873711 27.004496,45.031857 25.675413,47.525070 
z"/>
<path fill="#000000" opacity="1.000000" stroke="none" 
	d="
M16.228079,58.250595 
	C16.674038,55.398201 17.032248,52.952427 18.603094,50.859344 
	C19.564611,49.578171 20.825741,49.396721 22.140297,49.858124 
	C23.578176,50.362823 23.503090,51.733734 23.085249,52.804077 
	C22.179277,55.124828 22.649446,57.806393 21.097948,59.942661 
	C20.249083,61.111465 19.220720,61.831474 17.731792,61.551517 
	C16.057501,61.236710 15.577126,60.197594 16.228079,58.250595 
z"/>
<path fill="#000000" opacity="1.000000" stroke="none" 
	d="
M19.473948,78.906258 
	C20.556025,81.563217 21.445650,83.859520 21.332504,86.417694 
	C21.261066,88.032875 21.048302,89.453705 19.004299,89.509041 
	C17.125393,89.559914 15.797691,88.957588 15.699687,86.767464 
	C15.596815,84.468575 15.219960,82.136345 15.167383,79.896477 
	C15.093247,76.738235 17.108555,76.594704 19.473948,78.906258 
z"/>
<path fill="#000000" opacity="1.000000" stroke="none" 
	d="
M63.333977,11.946920 
	C64.664452,9.697627 72.984688,7.101762 74.641380,8.107336 
	C76.060776,8.968880 76.006500,10.309172 75.239594,11.547737 
	C73.849937,13.792071 65.676109,14.291409 63.333977,11.946920 
z"/>
<path fill="#000000" opacity="1.000000" stroke="none" 
	d="
M19.347298,71.046127 
	C19.270115,73.432564 19.625296,75.950104 16.610100,75.628624 
	C13.726394,75.321167 13.523750,73.268341 14.313631,70.810471 
	C14.859969,69.110435 14.939734,67.265732 15.398007,65.530586 
	C15.831551,63.889080 16.955696,62.968437 18.732943,63.475693 
	C20.571930,64.000572 20.066219,65.359787 19.791685,66.696503 
	C19.528442,67.978241 19.486927,69.305511 19.347298,71.046127 
z"/>
<path fill="#000000" opacity="1.000000" stroke="none" 
	d="
M84.743385,135.325668 
	C87.665092,131.059570 92.193146,133.572510 95.758865,131.573822 
	C96.713120,134.793579 96.491241,136.860931 93.092735,137.430496 
	C90.050362,137.940369 86.545753,140.792374 84.743385,135.325668 
z"/>
<path fill="#000000" opacity="1.000000" stroke="none" 
	d="
M77.421783,9.989832 
	C81.453064,5.875512 88.007965,6.994269 89.196144,12.241210 
	C85.132332,11.570832 80.941528,14.437426 77.421783,9.989832 
z"/>
<path fill="#000000" opacity="1.000000" stroke="none" 
	d="
M82.219383,135.192490 
	C80.936714,138.360107 72.692673,139.751434 71.169151,137.369400 
	C70.343925,136.079132 70.139885,134.025940 72.162376,133.901016 
	C75.467728,133.696869 78.982269,132.590347 82.219383,135.192490 
z"/>
</svg>